<svg
  xmlns="http://www.w3.org/2000/svg"
  viewBox="0 0 202 240"
  fill="none"
  aria-labelledby="hell-ui-logo-title"
>
  <title id="hell-ui-logo-title">Hell UI logo</title>
  <path
    fill="currentColor"
    d="M19 240V89.834a9.31 9.31 0 0 0-2.588-6.432C11.204 77.876 0 64.088 0 48 0 29.211 20.109 5.515 24.257.827a.998.998 0 0 1 1.501.007c.642 1.141 1.404 3.376.241 7.167C24.203 13.856 23 22.691 23 31c0 8.31 10.697 20 18 20h33v66.562a9.293 9.293 0 0 0 4.553 7.992C85.515 129.697 98 138.219 98 146c0 8.169-14.331 20.019-21.292 25.293a9.285 9.285 0 0 0-3.705 7.422C73 193.816 73 240 73 240H19Z"
  />
  <path
    fill="currentColor"
    d="M183 240V89.834a9.31 9.31 0 0 1 2.588-6.432C190.796 77.876 202 64.088 202 48c0-18.789-20.109-42.485-24.257-47.173a.998.998 0 0 0-1.501.007c-.642 1.141-1.404 3.376-.241 7.167C177.797 13.856 179 22.691 179 31c0 8.31-10.697 20-18 20h-33v66.562a9.293 9.293 0 0 1-4.553 7.992C116.485 129.697 104 138.219 104 146c0 8.169 14.331 20.019 21.292 25.293a9.285 9.285 0 0 1 3.705 7.422C129 193.816 129 240 129 240h54Z"
  />
</svg>
